<?xml version="1.0" encoding="UTF-8"?>
<svg width="106px" height="200px" viewBox="0 0 106 200" version="1.1" xmlns="http://www.w3.org/2000/svg" xmlns:xlink="http://www.w3.org/1999/xlink">
    <title>Mango Pearl Green Tea Latte</title>
    <defs>
        <linearGradient x1="50%" y1="54.8615057%" x2="50%" y2="28.7340199%" id="linearGradient-1">
            <stop stop-color="#FDFDFD" offset="0%"></stop>
            <stop stop-color="#FBF09E" offset="100%"></stop>
        </linearGradient>
        <linearGradient x1="50%" y1="54.8615057%" x2="50%" y2="28.7340199%" id="linearGradient-2">
            <stop stop-color="#FDFDFD" offset="0%"></stop>
            <stop stop-color="#F9E654" offset="100%"></stop>
        </linearGradient>
    </defs>
    <g id="Mango-Pearl-Green-Tea-Latte" stroke="none" stroke-width="1" fill="none" fill-rule="evenodd">
        <g transform="translate(10.000000, 8.000000)">
            <line x1="41" y1="77.5" x2="75" y2="0.5" id="Line" stroke="#CA3939" stroke-width="6"></line>
            <path d="M88.8230637,75.5 L71.1503364,183.5 L18.8496636,183.5 L1.17693635,75.5 L88.8230637,75.5 Z" id="Rectangle" stroke="#444141" stroke-width="2" fill="url(#linearGradient-1)"></path>
            <path d="M89,74.5 C89,49.6471863 69.300529,29.5 45,29.5 C20.699471,29.5 1,49.6471863 1,74.5" id="Path" stroke="#444141" stroke-width="2"></path>
            <path d="M1,74.5 C12.600106,66.4000042 20.8408467,61.398051 25.7222222,59.4941406 C29.1342691,58.1633207 33.5124551,56.4113995 40.2330078,54.5 C42.1623873,53.9512631 48.2032366,53.1179298 58.3555556,52 C51.7995273,58.5699635 66.2382859,59.312151 75,63.25 C83.7617141,67.187849 79.8711035,73.9456615 90,74.5" id="Path-Copy-2" stroke="#444141" stroke-width="2" fill="#F9E654"></path>
            <circle id="Oval-Copy-55" fill="#F7C01E" cx="24" cy="177" r="5"></circle>
            <circle id="Oval-Copy-56" fill="#F7C01E" cx="56" cy="177" r="5"></circle>
            <circle id="Oval-Copy-61" fill="#F7C01E" cx="62" cy="175" r="5"></circle>
            <circle id="Oval-Copy-63" fill="#F7C01E" cx="62" cy="158" r="5"></circle>
            <circle id="Oval-Copy-66" fill="#F7C01E" cx="67" cy="166" r="5"></circle>
            <circle id="Oval-Copy-64" fill="#F7C01E" cx="60" cy="168" r="5"></circle>
            <circle id="Oval-Copy-62" fill="#F7C01E" cx="46" cy="161" r="5"></circle>
            <circle id="Oval-Copy-69" fill="#F7C01E" cx="52" cy="167" r="5"></circle>
            <circle id="Oval-Copy-60" fill="#F7C01E" cx="41" cy="170" r="5"></circle>
            <circle id="Oval-Copy-57" fill="#F7C01E" cx="46" cy="176" r="5"></circle>
            <circle id="Oval-Copy-59" fill="#F7C01E" cx="34" cy="177" r="5"></circle>
            <circle id="Oval-Copy-71" fill="#F7C01E" cx="33" cy="171" r="5"></circle>
            <circle id="Oval-Copy-58" fill="#F7C01E" cx="22" cy="166" r="5"></circle>
            <circle id="Oval-Copy-65" fill="#F7C01E" cx="25" cy="159" r="5"></circle>
            <circle id="Oval-Copy-70" fill="#F7C01E" cx="31" cy="163" r="5"></circle>
            <circle id="Oval-Copy-67" fill="#F7C01E" cx="38" cy="160" r="5"></circle>
            <circle id="Oval-Copy-68" fill="#F7C01E" cx="54" cy="158" r="5"></circle>
            <path d="M88.8230637,76 L71.1503364,184 L18.8496636,184 L1.17693635,76 L88.8230637,76 Z" id="Rectangle-Copy-3" stroke="#444141" stroke-width="2" fill="url(#linearGradient-2)" opacity="0.552618118"></path>
            <circle id="Oval-Copy-72" fill="#F7C01E" cx="28" cy="175" r="5"></circle>
            <circle id="Oval-Copy-73" fill="#F7C01E" cx="41" cy="176" r="5"></circle>
            <circle id="Oval-Copy-74" fill="#F7C01E" cx="54" cy="171" r="5"></circle>
            <circle id="Oval-Copy-75" fill="#F7C01E" cx="65" cy="177" r="5"></circle>
            <circle id="Oval-Copy-76" fill="#F7C01E" cx="67" cy="161" r="5"></circle>
            <circle id="Oval-Copy-77" fill="#F7C01E" cx="42" cy="162" r="5"></circle>
            <circle id="Oval-Copy-78" fill="#F7C01E" cx="28" cy="164" r="5"></circle>
            <circle id="Oval-Copy-79" fill="#F7C01E" cx="35" cy="153" r="5"></circle>
            <circle id="Oval-Copy-80" fill="#F7C01E" cx="54" cy="158" r="5"></circle>
            <circle id="Oval-Copy-81" fill="#F7C01E" cx="63" cy="152" r="5"></circle>
        </g>
    </g>
</svg>