<?xml version="1.0" encoding="UTF-8"?>
<svg width="106px" height="200px" viewBox="0 0 106 200" version="1.1" xmlns="http://www.w3.org/2000/svg" xmlns:xlink="http://www.w3.org/1999/xlink">
    <title>Mango Matcha Pearl Tea</title>
    <defs>
        <linearGradient x1="50%" y1="55.9303977%" x2="50%" y2="36.0191761%" id="linearGradient-1">
            <stop stop-color="#EFD8B4" offset="0%"></stop>
            <stop stop-color="#B1F76E" offset="100%"></stop>
        </linearGradient>
        <linearGradient x1="50%" y1="69.0429688%" x2="50%" y2="41.1310369%" id="linearGradient-2">
            <stop stop-color="#EFD8B4" offset="0%"></stop>
            <stop stop-color="#F2E0C5" offset="24.6747212%"></stop>
            <stop stop-color="#FFFFFF" offset="46.1315056%"></stop>
            <stop stop-color="#B1F76E" offset="100%"></stop>
        </linearGradient>
    </defs>
    <g id="Mango-Matcha-Pearl-Tea" stroke="none" stroke-width="1" fill="none" fill-rule="evenodd">
        <g transform="translate(10.000000, 8.000000)">
            <line x1="41" y1="77.5" x2="75" y2="0.5" id="Line" stroke="#CA3939" stroke-width="6"></line>
            <path d="M88.8230637,75.5 L71.1503364,183.5 L18.8496636,183.5 L1.17693635,75.5 L88.8230637,75.5 Z" id="Rectangle" stroke="#444141" stroke-width="2" fill="url(#linearGradient-1)"></path>
            <path d="M89,74.5 C89,49.6471863 69.300529,29.5 45,29.5 C20.699471,29.5 1,49.6471863 1,74.5" id="Path" stroke="#444141" stroke-width="2"></path>
            <path d="M1,74.5 C12.600106,66.4000042 20.8408467,61.398051 25.7222222,59.4941406 C29.1342691,58.1633207 33.5124551,56.4113995 40.2330078,54.5 C42.1623873,53.9512631 48.2032366,53.1179298 58.3555556,52 C51.7995273,58.5699635 66.2382859,59.312151 75,63.25 C83.7617141,67.187849 79.8711035,73.9456615 90,74.5" id="Path-Copy-2" stroke="#444141" stroke-width="2" fill="#B1F76E"></path>
            <circle id="Oval-Copy-55" fill="#F7C01E" cx="24" cy="177" r="5"></circle>
            <circle id="Oval-Copy-56" fill="#F7C01E" cx="49" cy="176" r="5"></circle>
            <circle id="Oval-Copy-61" fill="#F7C01E" cx="62" cy="175" r="5"></circle>
            <circle id="Oval-Copy-63" fill="#F7C01E" cx="64" cy="156" r="5"></circle>
            <circle id="Oval-Copy-66" fill="#F7C01E" cx="67" cy="166" r="5"></circle>
            <circle id="Oval-Copy-64" fill="#F7C01E" cx="56" cy="167" r="5"></circle>
            <circle id="Oval-Copy-62" fill="#F7C01E" cx="46" cy="161" r="5"></circle>
            <circle id="Oval-Copy-60" fill="#F7C01E" cx="32" cy="165" r="5"></circle>
            <circle id="Oval-Copy-57" fill="#F7C01E" cx="41" cy="170" r="5"></circle>
            <circle id="Oval-Copy-59" fill="#F7C01E" cx="34" cy="177" r="5"></circle>
            <circle id="Oval-Copy-58" fill="#F7C01E" cx="22" cy="166" r="5"></circle>
            <circle id="Oval-Copy-65" fill="#F7C01E" cx="26" cy="156" r="5"></circle>
            <path d="M88.8230637,76 L71.1503364,184 L18.8496636,184 L1.17693635,76 L88.8230637,76 Z" id="Rectangle-Copy-3" stroke="#444141" stroke-width="2" fill="url(#linearGradient-2)" opacity="0.552618118"></path>
            <circle id="Oval-Copy-82" fill="#F7C01E" cx="31" cy="172" r="5"></circle>
            <circle id="Oval-Copy-83" fill="#F7C01E" cx="52" cy="167" r="5"></circle>
            <circle id="Oval-Copy-84" fill="#F7C01E" cx="54" cy="156" r="5"></circle>
            <circle id="Oval-Copy-85" fill="#F7C01E" cx="36" cy="157" r="5"></circle>
            <circle id="Oval-Copy-86" fill="#F7C01E" cx="58" cy="176" r="5"></circle>
            <circle id="Oval-Copy-87" fill="#F7C01E" cx="21" cy="157" r="5"></circle>
            <circle id="Oval-Copy-88" fill="#F7C01E" cx="67" cy="162" r="5"></circle>
        </g>
    </g>
</svg>