<?xml version="1.0" encoding="UTF-8"?>
<svg width="106px" height="200px" viewBox="0 0 106 200" version="1.1" xmlns="http://www.w3.org/2000/svg" xmlns:xlink="http://www.w3.org/1999/xlink">
    <title>Mango Smoothie</title>
    <defs>
        <linearGradient x1="50%" y1="5.68004261%" x2="50%" y2="81.6725852%" id="linearGradient-1">
            <stop stop-color="#FCED79" offset="0%"></stop>
            <stop stop-color="#F7D643" offset="100%"></stop>
        </linearGradient>
    </defs>
    <g id="Mango-Smoothie" stroke="none" stroke-width="1" fill="none" fill-rule="evenodd">
        <g transform="translate(10.000000, 8.000000)">
            <line x1="41" y1="77.5" x2="75" y2="0.5" id="Line" stroke="#CA3939" stroke-width="6"></line>
            <path d="M88.8230637,75.5 L71.1503364,183.5 L18.8496636,183.5 L1.17693635,75.5 L88.8230637,75.5 Z" id="Rectangle" stroke="#444141" stroke-width="2" fill="url(#linearGradient-1)"></path>
            <path d="M89,74.5 C89,49.6471863 69.300529,29.5 45,29.5 C20.699471,29.5 1,49.6471863 1,74.5" id="Path" stroke="#444141" stroke-width="2"></path>
            <path d="M1,74.5 C12.600106,66.4000042 20.8408467,61.398051 25.7222222,59.4941406 C29.1342691,58.1633207 33.5124551,56.4113995 40.2330078,54.5 C42.1623873,53.9512631 48.2032366,53.1179298 58.3555556,52 C51.7995273,58.5699635 52.9023701,63.8238697 61.6640842,67.7617188 C70.4257983,71.6995678 79.8711035,73.9456615 90,74.5" id="Path" stroke="#444141" stroke-width="2" fill="#FCED79"></path>
        </g>
    </g>
</svg>