<?xml version="1.0" encoding="UTF-8"?>
<svg width="106px" height="200px" viewBox="0 0 106 200" version="1.1" xmlns="http://www.w3.org/2000/svg" xmlns:xlink="http://www.w3.org/1999/xlink">
    <title>Milk Foam Black Forest </title>
    <defs>
        <linearGradient x1="50%" y1="5.68004261%" x2="50%" y2="81.6725852%" id="linearGradient-1">
            <stop stop-color="#3E3E3E" offset="0%"></stop>
            <stop stop-color="#FEFEFE" offset="100%"></stop>
        </linearGradient>
        <linearGradient x1="50%" y1="50%" x2="50%" y2="100%" id="linearGradient-2">
            <stop stop-color="#FFFFFE" offset="0%"></stop>
            <stop stop-color="#444141" offset="100%"></stop>
        </linearGradient>
    </defs>
    <g id="Milk-Foam-Black-Forest-" stroke="none" stroke-width="1" fill="none" fill-rule="evenodd">
        <g transform="translate(10.000000, 8.000000)">
            <line x1="41" y1="77.5" x2="75" y2="0.5" id="Line" stroke="#CA3939" stroke-width="6"></line>
            <path d="M88.8230637,75.5 L71.1503364,183.5 L18.8496636,183.5 L1.17693635,75.5 L88.8230637,75.5 Z" id="Rectangle" stroke="#444141" stroke-width="2" fill="url(#linearGradient-1)"></path>
            <path d="M89,74.5 C89,49.6471863 69.300529,29.5 45,29.5 C20.699471,29.5 1,49.6471863 1,74.5" id="Path" stroke="#444141" stroke-width="2"></path>
            <circle id="Oval-Copy-89" fill="#0C0C0C" cx="25" cy="177" r="5"></circle>
            <circle id="Oval-Copy-90" fill="#0C0C0C" cx="30" cy="167" r="5"></circle>
            <circle id="Oval-Copy-91" fill="#0C0C0C" cx="43" cy="177" r="5"></circle>
            <circle id="Oval-Copy-92" fill="#0C0C0C" cx="45" cy="165" r="5"></circle>
            <circle id="Oval-Copy-93" fill="#0C0C0C" cx="58" cy="177" r="5"></circle>
            <circle id="Oval-Copy-94" fill="#0C0C0C" cx="63" cy="167" r="5"></circle>
            <circle id="Oval-Copy-102" fill="#0C0C0C" cx="68" cy="160" r="5"></circle>
            <circle id="Oval-Copy-95" fill="#0C0C0C" cx="68" cy="175" r="5"></circle>
            <circle id="Oval-Copy-96" fill="#0C0C0C" cx="55" cy="167" r="5"></circle>
            <circle id="Oval-Copy-97" fill="#0C0C0C" cx="50" cy="175" r="5"></circle>
            <circle id="Oval-Copy-98" fill="#0C0C0C" cx="38" cy="172" r="5"></circle>
            <circle id="Oval-Copy-99" fill="#0C0C0C" cx="32" cy="177" r="5"></circle>
            <circle id="Oval-Copy-101" fill="#0C0C0C" cx="37" cy="160" r="5"></circle>
            <circle id="Oval-Copy-104" fill="#0C0C0C" cx="52" cy="160" r="5"></circle>
            <circle id="Oval-Copy-103" fill="#0C0C0C" cx="22" cy="160" r="5"></circle>
            <path d="M88.8230637,76 L71.1503364,184 L18.8496636,184 L1.17693635,76 L88.8230637,76 Z" id="Rectangle-Copy-4" stroke="#444141" stroke-width="2" fill="url(#linearGradient-1)" opacity="0.553013393"></path>
            <circle id="Oval-Copy-100" fill="#0C0C0C" cx="23" cy="170" r="5"></circle>
            <circle id="Oval-Copy-105" fill="#0C0C0C" cx="31" cy="177" r="5"></circle>
            <circle id="Oval-Copy-106" fill="#0C0C0C" cx="35" cy="162" r="5"></circle>
            <circle id="Oval-Copy-107" fill="#0C0C0C" cx="52" cy="170" r="5"></circle>
            <circle id="Oval-Copy-111" fill="#0C0C0C" cx="41" cy="172" r="5"></circle>
            <circle id="Oval-Copy-108" fill="#0C0C0C" cx="64" cy="177" r="5"></circle>
            <circle id="Oval-Copy-109" fill="#0C0C0C" cx="63" cy="160" r="5"></circle>
            <circle id="Oval-Copy-110" fill="#0C0C0C" cx="48" cy="160" r="5"></circle>
            <path d="M1,74.5 C12.600106,66.4000042 20.8408467,61.398051 25.7222222,59.4941406 C29.1342691,58.1633207 33.5124551,56.4113995 40.2330078,54.5 C42.1623873,53.9512631 48.2032366,53.1179298 58.3555556,52 C51.7995273,58.5699635 66.2382859,59.312151 75,63.25 C83.7617141,67.187849 79.8711035,73.9456615 90,74.5" id="Path-Copy-3" stroke="#444141" stroke-width="2" fill="url(#linearGradient-2)"></path>
        </g>
    </g>
</svg>