<?xml version="1.0" encoding="UTF-8"?>
<svg width="106px" height="200px" viewBox="0 0 106 200" version="1.1" xmlns="http://www.w3.org/2000/svg" xmlns:xlink="http://www.w3.org/1999/xlink">
    <title>Milk Tea with Pearls</title>
    <defs>
        <linearGradient x1="50%" y1="5.68004261%" x2="50%" y2="81.6725852%" id="linearGradient-1">
            <stop stop-color="#FFF8EE" offset="0%"></stop>
            <stop stop-color="#EBCA92" offset="100%"></stop>
        </linearGradient>
    </defs>
    <g id="Milk-Tea-with-Pearls" stroke="none" stroke-width="1" fill="none" fill-rule="evenodd">
        <g id="Milk-Tea-With-Pearls-" transform="translate(10.000000, 8.000000)">
            <line x1="41" y1="77.5" x2="75" y2="0.5" id="Line" stroke="#CA3939" stroke-width="6"></line>
            <path d="M88.8230637,75.5 L71.1503364,183.5 L18.8496636,183.5 L1.17693635,75.5 L88.8230637,75.5 Z" id="Rectangle" stroke="#444141" stroke-width="2" fill="#EBCA92"></path>
            <path d="M89,74.5 C89,49.6471863 69.300529,29.5 45,29.5 C20.699471,29.5 1,49.6471863 1,74.5" id="Path" stroke="#444141" stroke-width="2"></path>
            <circle id="Oval" fill="#0C0C0C" cx="16" cy="90" r="5"></circle>
            <circle id="Oval-Copy-7" fill="#0C0C0C" cx="15" cy="75" r="5"></circle>
            <circle id="Oval-Copy" fill="#0C0C0C" cx="25" cy="75" r="5"></circle>
            <circle id="Oval-Copy-2" fill="#0C0C0C" cx="34" cy="73" r="5"></circle>
            <circle id="Oval-Copy-3" fill="#0C0C0C" cx="30" cy="83" r="5"></circle>
            <circle id="Oval-Copy-4" fill="#0C0C0C" cx="61" cy="65" r="5"></circle>
            <circle id="Oval-Copy-8" fill="#0C0C0C" cx="60" cy="75" r="5"></circle>
            <circle id="Oval-Copy-5" fill="#0C0C0C" cx="70" cy="70" r="5"></circle>
            <circle id="Oval-Copy-6" fill="#0C0C0C" cx="80" cy="70" r="5"></circle>
            <circle id="Oval-Copy-9" fill="#0C0C0C" cx="53" cy="92" r="5"></circle>
            <circle id="Oval-Copy-53" fill="#0C0C0C" cx="49" cy="100" r="5"></circle>
            <circle id="Oval-Copy-10" fill="#0C0C0C" cx="40" cy="80" r="5"></circle>
            <circle id="Oval-Copy-11" fill="#0C0C0C" cx="40" cy="91" r="5"></circle>
            <circle id="Oval-Copy-54" fill="#0C0C0C" cx="46" cy="87" r="5"></circle>
            <circle id="Oval-Copy-12" fill="#0C0C0C" cx="21" cy="83" r="5"></circle>
            <circle id="Oval-Copy-13" fill="#0C0C0C" cx="11" cy="83" r="5"></circle>
            <circle id="Oval-Copy-14" fill="#0C0C0C" cx="67" cy="81" r="5"></circle>
            <circle id="Oval-Copy-15" fill="#0C0C0C" cx="52" cy="81" r="5"></circle>
            <circle id="Oval-Copy-16" fill="#0C0C0C" cx="42" cy="69" r="5"></circle>
            <circle id="Oval-Copy-23" fill="#0C0C0C" cx="31" cy="92" r="5"></circle>
            <circle id="Oval-Copy-24" fill="#0C0C0C" cx="30" cy="64" r="5"></circle>
            <circle id="Oval-Copy-17" fill="#0C0C0C" cx="20" cy="67" r="5"></circle>
            <circle id="Oval-Copy-18" fill="#0C0C0C" cx="50" cy="72" r="5"></circle>
            <circle id="Oval-Copy-19" fill="#0C0C0C" cx="82" cy="80" r="5"></circle>
            <circle id="Oval-Copy-52" fill="#0C0C0C" cx="74" cy="78" r="5"></circle>
            <circle id="Oval-Copy-51" fill="#0C0C0C" cx="60" cy="85" r="5"></circle>
            <circle id="Oval-Copy-20" fill="#0C0C0C" cx="6" cy="75" r="5"></circle>
            <circle id="Oval-Copy-21" fill="#0C0C0C" cx="75" cy="62" r="5"></circle>
            <circle id="Oval-Copy-22" fill="#0C0C0C" cx="75" cy="88" r="5"></circle>
            <path d="M88.8230637,76 L71.1503364,184 L18.8496636,184 L1.17693635,76 L88.8230637,76 Z" id="Rectangle-Copy" stroke="#444141" stroke-width="2" fill="url(#linearGradient-1)" opacity="0.568522135"></path>
        </g>
    </g>
</svg>